<?xml version="1.0" encoding="UTF-8"?>
<svg version="1.1" xmlns="http://www.w3.org/2000/svg" width="250" height="250">
<path d="M0 0 C82.5 0 165 0 250 0 C250 82.5 250 165 250 250 C167.5 250 85 250 0 250 C0 167.5 0 85 0 0 Z " fill="#FEFEFF" transform="translate(0,0)"/>
<path d="M0 0 C8.25299529 3.27755672 16.99943185 7.47431925 23.0625 14.12890625 C23.743125 14.78890625 24.42375 15.44890625 25.125 16.12890625 C28.55552282 15.80619858 30.21940216 14.35674975 32.625 12.00390625 C41.07049323 4.33337401 51.1288042 -1.44871077 62.7265625 -1.1875 C67.41209005 -0.56937666 70.04610443 2.08083627 73.3125 5.25390625 C80.66022889 16.90892449 78.79632566 31.2402474 76.125 44.12890625 C75.795 44.78890625 75.465 45.44890625 75.125 46.12890625 C75.70765625 46.27585938 76.2903125 46.4228125 76.890625 46.57421875 C89.3716306 49.98883349 101.28458368 55.74065731 108.87109375 66.63671875 C110.84055431 70.5510983 110.87038521 73.85010846 110.125 78.12890625 C105.47654123 89.77157381 93.93620054 95.37548977 83.125 100.12890625 C81.13495995 100.8247403 79.13776401 101.50182932 77.125 102.12890625 C77.1971875 102.71414062 77.269375 103.299375 77.34375 103.90234375 C80.36892841 131.885244 80.36892841 131.885244 74.125 142.12890625 C71.1634102 145.44008238 67.71145122 148.76824572 63.1640625 149.40234375 C50.29827238 149.94362295 40.58769869 143.0367014 31.125 135.12890625 C30.10679356 134.14745037 29.09680068 133.15633189 28.125 132.12890625 C24.50459914 133.72563965 21.70572776 135.9776522 18.625 138.44140625 C9.99770268 145.14420436 -0.71561862 150.50472039 -11.875 149.12890625 C-17.84314851 146.08852871 -21.37004011 142.07785302 -23.625 135.81640625 C-26.66050552 124.62506449 -25.34509462 113.03491792 -21.875 102.12890625 C-22.70515625 102.03609375 -23.5353125 101.94328125 -24.390625 101.84765625 C-35.33978274 99.5890856 -46.7201918 92.60975834 -53.875 84.12890625 C-56.87206411 78.95829565 -57.80877735 75.00745913 -56.875 69.12890625 C-55.3125 66.00390625 -55.3125 66.00390625 -52.875 63.12890625 C-52.44703125 62.5875 -52.0190625 62.04609375 -51.578125 61.48828125 C-44.33646398 53.20143204 -32.65219489 47.64149501 -21.875 46.12890625 C-22.0915625 45.12472656 -22.308125 44.12054688 -22.53125 43.0859375 C-25.12234518 30.59430909 -27.48055955 17.82744795 -20.875 6.12890625 C-14.96173883 -0.54820602 -8.71143036 -2.63946871 0 0 Z " fill="#08D9FF" transform="translate(97.875,50.87109375)"/>
<path d="M0 0 C4.00117793 -0.36841055 7.97677828 -0.65490345 11.99267578 -0.77954102 C12.70331177 -0.80228088 13.41394775 -0.82502075 14.14611816 -0.84844971 C25.79460713 -1.02847844 25.79460713 -1.02847844 30.70654297 2.53735352 C34.70208154 7.21484607 37.15256848 12.55918476 39.23681641 18.3112793 C40.13014508 20.88604944 40.13014508 20.88604944 42.00830078 23.93139648 C43.11767578 26.65795898 43.11767578 26.65795898 42.64892578 29.42749023 C40.53848904 33.87986571 38.12729196 38.10764459 35.61767578 42.34545898 C35.11880859 43.19946289 34.61994141 44.0534668 34.10595703 44.93334961 C32.17465868 48.2289834 30.23713681 51.47876744 28.11767578 54.65795898 C23.16617742 55.63579842 18.09362432 55.69321779 13.05517578 55.78295898 C12.3387088 55.79598053 11.62224182 55.80900208 10.88406372 55.82241821 C-0.7665414 55.8901725 -0.7665414 55.8901725 -5.12841797 53.34985352 C-8.3602286 49.99852911 -9.84701443 46.01582673 -11.20556641 41.62475586 C-12.2194208 38.67828724 -13.90025595 36.2118387 -15.56982422 33.59545898 C-17.3929976 30.61336919 -18.02627659 29.41837916 -17.37060547 25.95483398 C-15.33399136 21.44327937 -12.90282005 17.2266451 -10.38232422 12.97045898 C-9.63402344 11.68945312 -9.63402344 11.68945312 -8.87060547 10.38256836 C-3.21652286 0.73424776 -3.21652286 0.73424776 0 0 Z " fill="#F9FEFF" transform="translate(111.88232421875,97.342041015625)"/>
<path d="M0 0 C1.11254883 1.6706543 1.11254883 1.6706543 1.95703125 3.82421875 C2.26447266 4.60603516 2.57191406 5.38785156 2.88867188 6.19335938 C3.19353516 7.01642578 3.49839844 7.83949219 3.8125 8.6875 C4.13669922 9.49123047 4.46089844 10.29496094 4.79492188 11.12304688 C8.00546225 19.53095026 5.8471057 24.90800054 2.4375 32.875 C2.10814453 33.65875 1.77878906 34.4425 1.43945312 35.25 C0.63203214 37.16908756 -0.18319769 39.0848865 -1 41 C-11.1979015 39.79113022 -22.24580829 33.78910818 -29 26 C-30.67624973 23.20443042 -30.99909997 22.04770182 -31.0625 18.6875 C-29.39676499 12.90641968 -26.35248807 9.93960955 -21.15087891 6.93017578 C-4.67814639 -1.93796273 -4.67814639 -1.93796273 0 0 Z " fill="#FAFEFF" transform="translate(79,105)"/>
<path d="M0 0 C2.51086232 11.18678836 4.03260474 23.27206067 -1 34 C-2.65145641 36.20194187 -3.55066378 36.89197143 -6.2421875 37.5390625 C-17.10561941 37.89365523 -25.35499001 32.57060534 -33.3125 25.5625 C-34.5539835 24.38788276 -35.78836029 23.20537801 -37 22 C-36.00607739 20.32970194 -35.00421619 18.66412969 -34 17 C-33.34128906 15.86304688 -32.68257812 14.72609375 -32.00390625 13.5546875 C-28.24794 7.67653731 -24.97688373 3.13359607 -17.93359375 1.421875 C-11.98372566 0.39276083 -6.03179015 0 0 0 Z " fill="#F9FEFF" transform="translate(167,155)"/>
<path d="M0 0 C4.04866212 2.42919727 5.6883849 4.52302046 7 9 C7.28945786 12.44091623 7.27890032 15.86132061 7.25 19.3125 C7.26160156 20.68051758 7.26160156 20.68051758 7.2734375 22.07617188 C7.25724519 27.72323885 6.60043928 32.58264006 5 38 C-14.75987161 37.76587199 -14.75987161 37.76587199 -21.35546875 31.37890625 C-30 21.43786726 -30 21.43786726 -30 15 C-23.32858811 6.83776981 -10.7138124 -1.14790847 0 0 Z " fill="#FAFEFF" transform="translate(161,57)"/>
<path d="M0 0 C9.96449177 2.81671044 18.36632603 8.38916887 25.5703125 15.7265625 C22.32119054 22.78437741 17.99301816 30.17619023 11.5703125 34.7265625 C4.56123194 37.27188594 -3.02920428 37.57543144 -10.4296875 37.7265625 C-12.33904823 31.26528578 -12.79561722 25.32263678 -12.8046875 18.6015625 C-12.82917969 17.63863281 -12.85367188 16.67570312 -12.87890625 15.68359375 C-12.90359043 9.70179479 -12.44061897 6.25877026 -8.4296875 1.7265625 C-5.1719653 -0.4452523 -3.78962872 -0.6013064 0 0 Z " fill="#FBFEFF" transform="translate(93.4296875,57.2734375)"/>
<path d="M0 0 C2.90341769 0.23446844 5.80354822 0.47874525 8.703125 0.7578125 C11.8943838 1.06001802 11.8943838 1.06001802 14.671875 0.8671875 C19.27751804 0.76451393 21.28001223 1.31850869 24.703125 4.55859375 C27.32158852 7.56817551 29.66253607 10.76855864 32 14 C32.75539062 14.89203125 33.51078125 15.7840625 34.2890625 16.703125 C36 19 36 19 36 22 C27.32457338 29.85126109 17.36762908 36.45638597 5.3828125 36.3515625 C3 36 3 36 0.4375 33.75 C-2.56296448 28.009981 -2.18337964 22.41196962 -2.1875 16.0625 C-2.19974609 15.07314453 -2.21199219 14.08378906 -2.22460938 13.06445312 C-2.22654297 12.10603516 -2.22847656 11.14761719 -2.23046875 10.16015625 C-2.23457764 9.29011963 -2.23868652 8.42008301 -2.24291992 7.52368164 C-1.97253559 4.71467373 -1.15881263 2.5601808 0 0 Z " fill="#FCFEFF" transform="translate(83,156)"/>
<path d="M0 0 C11.67975102 3.05661569 23.05646679 7.58470019 30 18 C29.91013386 22.76290545 28.98623996 25.99585364 25.6953125 29.53125 C19.50742479 34.89218498 8.34803535 42 0 42 C-1.37548025 38.77950523 -2.72149275 35.54748411 -4.0625 32.3125 C-4.64741211 30.94448242 -4.64741211 30.94448242 -5.24414062 29.54882812 C-5.60830078 28.66259766 -5.97246094 27.77636719 -6.34765625 26.86328125 C-6.68804932 26.05157471 -7.02844238 25.23986816 -7.37915039 24.40356445 C-8.43202023 20.3274718 -7.06662024 16.88150734 -5.625 13.046875 C-5.36203125 12.345625 -5.0990625 11.644375 -4.828125 10.921875 C-4.41820312 9.84679687 -4.41820312 9.84679687 -4 8.75 C-3.72671875 8.0178125 -3.4534375 7.285625 -3.171875 6.53125 C-1.13225446 1.13225446 -1.13225446 1.13225446 0 0 Z " fill="#FBFEFF" transform="translate(171,104)"/>
<path d="M0 0 C4.30419687 1.72167875 7.93182415 4.79583925 10 9 C10.92633252 14.36634014 10.69357789 18.61284422 8.25 23.5 C4.20993842 27.98895732 1.31046819 29.81061736 -4.8125 30.3125 C-9.21597578 30.23978205 -11.63091573 28.90966369 -15 26 C-19.08697179 21.59037254 -19.78090959 17.59786162 -19.59765625 11.765625 C-18.57423054 7.02977271 -15.62248748 4.06518171 -12 1 C-8.30836767 -0.84581616 -4.03805842 -0.34502398 0 0 Z " fill="#04D8FF" transform="translate(129,110)"/>
<path d="M0 0 C6.27 0 12.54 0 19 0 C15.40923687 6.28383548 14.22156424 8.08382682 9 12 C7.49707257 10.18992669 5.99772829 8.37687764 4.5 6.5625 C3.6646875 5.55316406 2.829375 4.54382813 1.96875 3.50390625 C0 1 0 1 0 0 Z " fill="#EFFCFF" transform="translate(115,159)"/>
<path d="M0 0 C4.41619143 3.15442245 7.04246307 6.52144408 10 11 C10 11.33 10 11.66 10 12 C3.73 12 -2.54 12 -9 12 C-6.08940292 7.63410439 -3.36486471 3.9256755 0 0 Z " fill="#E9FBFF" transform="translate(124,79)"/>
<path d="M0 0 C3.50297874 4.02193856 9 10.39433144 9 16 C-0.41002278 16.18451025 -0.41002278 16.18451025 -5 15 C-3.97137215 9.55432314 -2.75385216 4.88182883 0 0 Z " fill="#EDFCFF" transform="translate(90,134)"/>
<path d="M0 0 C2.40243465 2.15344283 3.60244944 3.96874765 4.6875 7 C5.06455078 8.0209375 5.06455078 8.0209375 5.44921875 9.0625 C6 11 6 11 6 14 C1.15758367 15.33583899 -2.93437617 16.25328119 -8 16 C-6.57250019 12.20950293 -4.83763458 8.72877544 -2.875 5.1875 C-2.33617187 4.21167969 -1.79734375 3.23585937 -1.2421875 2.23046875 C-0.83226562 1.49441406 -0.42234375 0.75835937 0 0 Z " fill="#F3FDFF" transform="translate(158,134)"/>
<path d="M0 0 C-1.42749981 3.79049707 -3.16236542 7.27122456 -5.125 10.8125 C-5.93324219 12.27623047 -5.93324219 12.27623047 -6.7578125 13.76953125 C-7.37269531 14.87361328 -7.37269531 14.87361328 -8 16 C-10.47186455 13.03653214 -11.66248361 10.45958311 -12.6875 6.75 C-12.93886719 5.85796875 -13.19023438 4.9659375 -13.44921875 4.046875 C-13.63097656 3.37140625 -13.81273438 2.6959375 -14 2 C-9.07262981 0.02905192 -5.21979128 -0.1799928 0 0 Z " fill="#F1FCFF" transform="translate(99,100)"/>
<path d="M0 0 C1.95901454 0.11382653 3.9172338 0.24141125 5.875 0.375 C6.96554688 0.44460937 8.05609375 0.51421875 9.1796875 0.5859375 C12 1 12 1 14 3 C12.35 7.29 10.7 11.58 9 16 C6.74356513 12.99142017 4.74975139 10.07983563 2.8125 6.875 C2.28269531 6.00617188 1.75289062 5.13734375 1.20703125 4.2421875 C0 2 0 2 0 0 Z " fill="#F6FDFF" transform="translate(150,100)"/>
</svg>
