<?xml version="1.0" encoding="UTF-8"?>
<svg version="1.1" xmlns="http://www.w3.org/2000/svg" width="250" height="250">
<path d="M0 0 C82.5 0 165 0 250 0 C250 82.5 250 165 250 250 C167.5 250 85 250 0 250 C0 167.5 0 85 0 0 Z " fill="#FEFEFE" transform="translate(0,0)"/>
<path d="M0 0 C4.05282912 2.97716386 7.52664998 6.39304502 11.03125 9.98828125 C17.03640485 16.14041541 24.69066981 22.63139888 33.71875 22.80078125 C41.19904197 22.58919229 47.36174088 19.93826713 52.65625 14.67578125 C53.63075382 13.60697061 54.59558421 12.52875152 55.53125 11.42578125 C56.70196826 14.93793604 56.08088526 16.03005961 54.53735352 19.26220703 C54.07026978 20.17848877 54.07026978 20.17848877 53.59375 21.11328125 C53.275271 21.73960449 52.95679199 22.36592773 52.62866211 23.01123047 C48.24076084 31.26189376 42.35973999 37.13891537 33.53125 40.42578125 C32.73203125 40.72355469 31.9328125 41.02132812 31.109375 41.328125 C18.86195376 45.25961969 6.3114001 44.47441701 -5.46875 39.42578125 C-13.56535385 35.19083266 -20.01886796 28.59453356 -26.6328125 22.3984375 C-33.46121865 16.16323266 -39.20296603 13.80264682 -48.5390625 14.08203125 C-56.48405903 15.01424418 -61.28992452 19.6643379 -66.46875 25.42578125 C-67.46875 22.42578125 -67.46875 22.42578125 -66.17578125 19.24609375 C-65.55461199 18.00907574 -64.92263227 16.77744077 -64.28125 15.55078125 C-63.97638672 14.93847656 -63.67152344 14.32617188 -63.35742188 13.6953125 C-58.27685206 3.74719466 -50.51465026 -2.34692528 -39.9453125 -5.875 C-26.04027398 -8.67163134 -12.09389798 -7.71177355 0 0 Z " fill="#1BB6BA" transform="translate(109.46875,131.57421875)"/>
<path d="M0 0 C3.54288629 2.79646217 6.76927262 5.85197924 10 9 C19.63403397 18.35352822 19.63403397 18.35352822 32.3125 21.5 C41.66829327 21.21765782 48.3842995 16.18424177 55 10 C52.38348909 20.99393618 47.35254001 29.43441433 38 36 C26.39293109 42.50483722 13.057855 44.01388183 0.125 40.8125 C-10.9408735 37.26553612 -18.31949604 30.46500684 -26.57421875 22.5234375 C-34.19453695 15.35823784 -39.73543911 12.33666097 -50.3203125 12.64453125 C-58.44765942 13.7226487 -64.49536127 19.29148576 -70 25 C-67.5145568 14.08772082 -62.56603242 5.01021029 -53.33984375 -1.56640625 C-36.77850404 -11.71333726 -16.23961864 -10.0797633 0 0 Z " fill="#1ABBB9" transform="translate(153,83)"/>
</svg>
