<?xml version="1.0" encoding="UTF-8"?>
<svg version="1.1" xmlns="http://www.w3.org/2000/svg" width="250" height="250">
<path d="M0 0 C82.5 0 165 0 250 0 C250 82.5 250 165 250 250 C167.5 250 85 250 0 250 C0 167.5 0 85 0 0 Z " fill="#FEFEFE" transform="translate(0,0)"/>
<path d="M0 0 C52.58088372 -4.56167363 52.58088372 -4.56167363 62.31738281 2.61767578 C68.93406009 8.95820447 72.21570411 18.19609658 74 27 C74 27.66 74 28.32 74 29 C74.66 29 75.32 29 76 29 C76.26804443 28.28811523 76.53608887 27.57623047 76.81225586 26.84277344 C78.03022305 23.92766347 79.44623778 21.26336074 81.00390625 18.515625 C81.57947266 17.49855469 82.15503906 16.48148438 82.74804688 15.43359375 C83.64620117 13.85771484 83.64620117 13.85771484 84.5625 12.25 C85.16513672 11.18394531 85.76777344 10.11789063 86.38867188 9.01953125 C90.86099733 1.13900267 90.86099733 1.13900267 92 0 C93.81055025 -0.09376053 95.62477201 -0.1174411 97.43774414 -0.11352539 C98.59887222 -0.11344986 99.76000031 -0.11337433 100.95631409 -0.11329651 C102.85159096 -0.10555458 102.85159096 -0.10555458 104.78515625 -0.09765625 C106.71408974 -0.09553383 106.71408974 -0.09553383 108.68199158 -0.09336853 C112.10643443 -0.08954418 115.53083509 -0.07971462 118.95526123 -0.06866455 C122.44738189 -0.05844864 125.93950934 -0.05387053 129.43164062 -0.04882812 C136.28777778 -0.03809227 143.14388687 -0.02101684 150 0 C149.06691809 1.88619268 148.13147286 3.77121634 147.19506836 5.65576172 C146.41407021 7.23053787 146.41407021 7.23053787 145.61729431 8.83712769 C143.12351817 13.71409749 140.35509721 18.41477917 137.5625 23.125 C136.32231764 25.23402286 135.08275562 27.34341061 133.84375 29.453125 C132.89242187 31.07057617 132.89242187 31.07057617 131.921875 32.72070312 C128.77515892 38.08994733 125.66841381 43.48208191 122.5625 48.875 C121.94060791 49.95410645 121.31871582 51.03321289 120.67797852 52.14501953 C119.41550269 54.33582951 118.15321444 56.5267476 116.89111328 58.71777344 C113.14348395 65.22217941 109.39095039 71.72375795 105.63842773 78.2253418 C102.43467538 83.77686292 99.23415423 89.33020797 96.0390625 94.88671875 C89.46078718 106.32032959 82.86060273 117.73299389 76 129 C72.1660942 127.7220314 71.89363185 126.52549332 69.99609375 123.03125 C69.42576416 121.99427979 68.85543457 120.95730957 68.26782227 119.88891602 C67.66381592 118.77057373 67.05980957 117.65223145 66.4375 116.5 C65.16545643 114.18543129 63.89201618 111.87162963 62.6171875 109.55859375 C61.99553711 108.42663574 61.37388672 107.29467773 60.73339844 106.12841797 C58.5749568 102.23288683 56.3413034 98.38850119 54.0625 94.5625 C49.92571282 87.59296903 45.85877918 80.58497227 41.8125 73.5625 C41.17449463 72.45527588 40.53648926 71.34805176 39.87915039 70.20727539 C38.57110523 67.93662932 37.26324552 65.66587642 35.95556641 63.39501953 C33.42631702 59.0040405 30.89407178 54.6147943 28.36132812 50.22583008 C27.12395481 48.08136345 25.88697336 45.93667066 24.65039062 43.79174805 C21.74105651 38.74591948 18.82881524 33.70184044 15.90567017 28.66400146 C14.8725706 26.88319999 13.84043829 25.10184142 12.80859375 23.3203125 C11.51493912 21.08742917 10.21947836 18.8555909 8.921875 16.625 C8.33535156 15.61179687 7.74882813 14.59859375 7.14453125 13.5546875 C6.63253174 12.67280762 6.12053223 11.79092773 5.59301758 10.88232422 C3.61753234 7.30798265 1.80172477 3.66429942 0 0 Z " fill="#41B783" transform="translate(50,60)"/>
<path d="M0 0 C9.18876828 -1.69965096 19.0353624 -3.24749616 28 0 C35.70667421 6.96484835 40.36818235 17.40805454 44 27 C44 27.66 44 28.32 44 29 C44.66 29 45.32 29 46 29 C46.40206665 27.93217285 46.40206665 27.93217285 46.81225586 26.84277344 C48.03022305 23.92766347 49.44623778 21.26336074 51.00390625 18.515625 C51.57947266 17.49855469 52.15503906 16.48148438 52.74804688 15.43359375 C53.64620117 13.85771484 53.64620117 13.85771484 54.5625 12.25 C55.46645508 10.65091797 55.46645508 10.65091797 56.38867188 9.01953125 C60.86099733 1.13900267 60.86099733 1.13900267 62 0 C64.07262076 -0.08767112 66.14820294 -0.10695873 68.22265625 -0.09765625 C69.48271484 -0.09443359 70.74277344 -0.09121094 72.04101562 -0.08789062 C73.38151109 -0.07953403 74.72200588 -0.07106907 76.0625 -0.0625 C77.40689942 -0.0574866 78.7513006 -0.05292342 80.09570312 -0.04882812 C83.39717941 -0.03699488 86.69856803 -0.02050971 90 0 C81.99657611 14.68817874 73.87653361 29.27890989 65.41552734 43.7097168 C59.15499498 54.40429388 53.06489195 65.19357613 47 76 C45.68 76 44.36 76 43 76 C42.59386475 75.2879541 42.18772949 74.5759082 41.76928711 73.84228516 C22.99384266 40.69205259 22.99384266 40.69205259 3.50292969 7.96289062 C3.03918945 7.20169922 2.57544922 6.44050781 2.09765625 5.65625 C1.69039307 4.99431641 1.28312988 4.33238281 0.86352539 3.65039062 C0 2 0 2 0 0 Z " fill="#354A5E" transform="translate(80,60)"/>
</svg>
