<?xml version="1.0" encoding="UTF-8"?>
<svg version="1.1" xmlns="http://www.w3.org/2000/svg" width="250" height="250">
<path d="M0 0 C82.5 0 165 0 250 0 C250 82.5 250 165 250 250 C167.5 250 85 250 0 250 C0 167.5 0 85 0 0 Z " fill="#FEFEFE" transform="translate(0,0)"/>
<path d="M0 0 C45.54 0 91.08 0 138 0 C136.77779963 15.88860486 135.5342472 31.76529555 134.125 47.63671875 C133.95315714 49.58469002 133.78144833 51.53267312 133.60986328 53.48066711 C133.1647585 58.5301519 132.71797144 63.5794863 132.27075195 68.62878418 C131.82015462 73.71923389 131.37104543 78.80981484 130.921875 83.90039062 C130.40442674 89.76409449 129.8869052 95.62779174 129.36865234 101.49142456 C128.23438251 114.32663646 127.10845452 127.1625288 126 140 C124.43802272 140.47160091 122.87579914 140.94238606 121.31347656 141.4128418 C120.44354065 141.67510056 119.57360474 141.93735931 118.67730713 142.20756531 C113.44485341 143.75627737 108.17318685 145.16228547 102.90307617 146.57641602 C97.93856207 147.91252413 92.99285291 149.28696398 88.06640625 150.7578125 C87.10186523 151.03906982 86.13732422 151.32032715 85.14355469 151.61010742 C83.31542745 152.14438848 81.49141241 152.69304567 79.67285156 153.2590332 C69.05296163 156.31716442 59.86995402 153.98680497 49.5625 150.75 C40.8704456 148.10926397 32.171176 145.69720829 23.33227539 143.59863281 C22.56906982 143.41526367 21.80586426 143.23189453 21.01953125 143.04296875 C20.36057861 142.88852295 19.70162598 142.73407715 19.02270508 142.57495117 C16.60325636 141.88722616 14.32109086 140.96487427 12 140 C9.18985836 108.73150464 6.4122677 77.46014353 3.66531372 46.18603516 C3.34665859 42.55868712 3.02717696 38.9314133 2.70700073 35.30419922 C2.32592147 30.98638706 1.94655896 26.66842743 1.56850433 22.35034943 C1.42764142 20.74459893 1.28618715 19.13890019 1.14411163 17.53325653 C0.94886188 15.32536971 0.75577485 13.11730401 0.56323242 10.90917969 C0.4539592 9.6657782 0.34468597 8.42237671 0.23210144 7.14129639 C0.05660362 4.76608202 0 2.38168906 0 0 Z " fill="#284FE4" transform="translate(56,47)"/>
<path d="M0 0 C28.38 0 56.76 0 86 0 C85.41837052 9.88770114 84.83688132 19.7372476 83.97190857 29.59864807 C83.9095999 30.31226564 83.84729122 31.02588322 83.78309441 31.76112556 C83.71932169 32.49093069 83.65554897 33.22073582 83.58984375 33.97265625 C83.45655032 35.51775915 83.32346231 37.06287978 83.19056702 38.60801697 C82.84572988 42.61106843 82.49816515 46.61387818 82.14996338 50.61663818 C81.79293678 54.7267005 81.43858473 58.83699339 81.08398438 62.94726562 C80.39188927 70.9650673 79.69690249 78.98261476 79 87 C78.12632278 87.26858322 77.25264557 87.53716644 76.35249329 87.81388855 C75.1962999 88.16945328 74.04010651 88.52501801 72.84887695 88.89135742 C71.70707474 89.24244064 70.56527252 89.59352386 69.38887024 89.95524597 C67.24021059 90.61765576 65.09235193 91.28267393 62.94560242 91.95124817 C60.36436602 92.75497161 57.77678246 93.53513077 55.1875 94.3125 C54.31158203 94.58900391 53.43566406 94.86550781 52.53320312 95.15039062 C43.68512807 97.77375567 36.89122128 96.16510963 28.1875 93.625 C26.60946096 93.17417817 25.03133604 92.72365685 23.453125 92.2734375 C22.31520508 91.94617676 22.31520508 91.94617676 21.15429688 91.61230469 C17.40763606 90.54741061 13.63903233 89.56455641 9.87109375 88.578125 C8 88 8 88 7 87 C6.77118462 85.00383495 6.60468312 83.00045807 6.46484375 80.99609375 C6.37783203 79.78115234 6.29082031 78.56621094 6.20117188 77.31445312 C6.11416016 76.03505859 6.02714844 74.75566406 5.9375 73.4375 C5.84662109 72.15423828 5.75574219 70.87097656 5.66210938 69.54882812 C5.4373121 66.36617195 5.21813793 63.18311954 5 60 C10.94 60 16.88 60 23 60 C23.66 64.62 24.32 69.24 25 74 C27.37265061 74.67617524 29.74755355 75.34108226 32.125 76 C32.79015625 76.19078125 33.4553125 76.3815625 34.140625 76.578125 C41.10717 78.4905099 45.87135783 78.27996393 52.6875 76 C58.70833333 74 58.70833333 74 62 74 C62.66 66.74 63.32 59.48 64 52 C44.2 52 24.4 52 4 52 C3.67 46.39 3.34 40.78 3 35 C23.79 35 44.58 35 66 35 C66 31.7 66 28.4 66 25 C66.33 22.36 66.66 19.72 67 17 C45.22 17 23.44 17 1 17 C0 9 0 9 0 0 Z " fill="#FDFDFE" transform="translate(82,76)"/>
<path d="M0 0 C18.48 0 36.96 0 56 0 C56 11.25 56 11.25 55.62036133 15.34060669 C55.53621979 16.27149612 55.45207825 17.20238556 55.36538696 18.16148376 C55.22512589 19.63640038 55.22512589 19.63640038 55.08203125 21.14111328 C54.93572769 22.73801247 54.93572769 22.73801247 54.78646851 24.36717224 C54.46612845 27.85196619 54.13936588 31.33612514 53.8125 34.8203125 C53.58789931 37.24979029 53.36370288 39.67930548 53.13989258 42.1088562 C52.55208585 48.47791782 51.95881479 54.84645884 51.36437988 61.21490479 C50.75782917 67.72369179 50.1564815 74.23295928 49.5546875 80.7421875 C48.37486524 93.49526532 47.18944283 106.24781605 46 119 C42.31879272 120.12677017 38.63687679 121.25120756 34.95483398 122.37524414 C33.91881798 122.69238625 32.88280197 123.00952835 31.81539154 123.33628082 C24.60098445 125.53698436 17.37782232 127.59693779 10.0625 129.4375 C9.06927734 129.69208984 8.07605469 129.94667969 7.05273438 130.20898438 C4.70300035 130.8106071 2.35169616 131.40609338 0 132 C0 126.06 0 120.12 0 114 C7.80097733 111.25911607 15.65085602 108.92947001 23.625 106.75 C24.60936035 106.47978027 25.5937207 106.20956055 26.60791016 105.93115234 C27.53394043 105.68059082 28.4599707 105.4300293 29.4140625 105.171875 C30.66630615 104.8330127 30.66630615 104.8330127 31.94384766 104.48730469 C34 104 34 104 36 104 C35.98812653 103.28760666 35.97625305 102.57521332 35.96401978 101.8412323 C35.89195073 94.08343562 36.33304908 86.46227573 37.0234375 78.73828125 C37.12967438 77.50820847 37.23591125 76.27813568 37.34536743 75.01078796 C37.56992423 72.42307581 37.79696056 69.83557773 38.02636719 67.24829102 C38.37246219 63.34114989 38.7103243 59.43336423 39.046875 55.52539062 C39.26774103 52.99214489 39.48908013 50.45894035 39.7109375 47.92578125 C39.85950699 46.21084221 39.85950699 46.21084221 40.01107788 44.46125793 C40.83000707 35.27518276 41.92105949 26.17099434 43 17 C28.81 17 14.62 17 0 17 C0 11.39 0 5.78 0 0 Z " fill="#2A66F1" transform="translate(125,59)"/>
<path d="M0 0 C5.94 0 11.88 0 18 0 C18.66 4.62 19.32 9.24 20 14 C21.04800781 14.27714844 22.09601563 14.55429688 23.17578125 14.83984375 C24.55470067 15.20567952 25.9336062 15.57156767 27.3125 15.9375 C28.00279297 16.11990234 28.69308594 16.30230469 29.40429688 16.49023438 C32.29887844 17.2593261 35.15784729 18.05261576 38 19 C38 24.61 38 30.22 38 36 C38.99 36.495 38.99 36.495 40 37 C34.1725645 36.40603715 28.80380456 35.26407239 23.1875 33.625 C21.60946096 33.17417817 20.03133604 32.72365685 18.453125 32.2734375 C17.69451172 32.05526367 16.93589844 31.83708984 16.15429688 31.61230469 C12.40763606 30.54741061 8.63903233 29.56455641 4.87109375 28.578125 C3 28 3 28 2 27 C1.77118462 25.00383495 1.60468312 23.00045807 1.46484375 20.99609375 C1.37783203 19.78115234 1.29082031 18.56621094 1.20117188 17.31445312 C1.11416016 16.03505859 1.02714844 14.75566406 0.9375 13.4375 C0.84662109 12.15423828 0.75574219 10.87097656 0.66210938 9.54882812 C0.4373121 6.36617195 0.21813793 3.18311954 0 0 Z " fill="#E6E7EA" transform="translate(87,136)"/>
<path d="M0 0 C14.19 0 28.38 0 43 0 C43 5.61 43 11.22 43 17 C29.14 17 15.28 17 1 17 C0 9 0 9 0 0 Z " fill="#EAEAEB" transform="translate(82,76)"/>
<path d="M0 0 C13.2 0 26.4 0 40 0 C40 5.28 40 10.56 40 16 C46.93 16 53.86 16 61 16 C61 16.33 61 16.66 61 17 C41.2 17 21.4 17 1 17 C0.67 11.39 0.34 5.78 0 0 Z " fill="#E7E8EB" transform="translate(85,111)"/>
<path d="M0 0 C21.78 0 43.56 0 66 0 C65.67 5.94 65.34 11.88 65 18 C44.21 18 23.42 18 2 18 C2 17.67 2 17.34 2 17 C15.2 17 28.4 17 42 17 C42 11.72 42 6.44 42 1 C28.14 1 14.28 1 0 1 C0 0.67 0 0.34 0 0 Z " fill="#376CEF" transform="translate(83,93)"/>
<path d="M0 0 C6.93 0 13.86 0 21 0 C20.855625 2.8875 20.71125 5.775 20.5625 8.75 C20.49784546 10.10496582 20.49784546 10.10496582 20.43188477 11.48730469 C20.39377686 12.20821289 20.35566895 12.92912109 20.31640625 13.671875 C20.27974854 14.4050293 20.24309082 15.13818359 20.20532227 15.89355469 C19.99600743 18.04096064 19.68943567 19.95373485 19 22 C17.03125 22.9765625 17.03125 22.9765625 14.5 23.625 C13.6853125 23.84414062 12.870625 24.06328125 12.03125 24.2890625 C8.02889255 25.22775974 4.01306899 26.10820689 0 27 C0 18.09 0 9.18 0 0 Z " fill="#2B66F1" transform="translate(125,128)"/>
</svg>
